<svg xmlns="http://www.w3.org/2000/svg" viewBox="0 0 120 90">
  <defs>
    <linearGradient id="bodyB" x1="0" x2="1">
      <stop offset="0%" stop-color="#ffe57c"/>
      <stop offset="100%" stop-color="#ff9d2d"/>
    </linearGradient>
  </defs>
  <g>
    <ellipse cx="58" cy="45" rx="24" ry="18" fill="url(#bodyB)" stroke="#fff9d2" stroke-width="3"/>
    <path d="M36 44C22 28 9 26 4 31c10 6 15 13 20 23-7 8-11 15-11 22 9-4 20-9 32-18" fill="#ffeeb0" stroke="#fff9d2" stroke-width="3" stroke-linejoin="round"/>
    <path d="M79 42c14-16 24-18 32-13-8 7-12 13-16 20 7 5 11 10 12 18-9-2-17-6-28-14" fill="#ffc660" stroke="#fff9d2" stroke-width="3" stroke-linejoin="round"/>
    <path d="M86 49l20 6-18 8c2-5 2-10-2-14z" fill="#ff7426"/>
    <circle cx="67" cy="40" r="3.5" fill="#182437"/>
    <path d="M52 27l3 7 7 1-5 5 1 7-6-4-6 4 1-7-5-5 7-1z" fill="#fff7bd"/>
  </g>
</svg>
