<svg xmlns="http://www.w3.org/2000/svg" viewBox="0 0 120 90">
  <defs>
    <linearGradient id="bodyQ" x1="0" x2="1">
      <stop offset="0%" stop-color="#6bd0ff"/>
      <stop offset="100%" stop-color="#2f67ff"/>
    </linearGradient>
  </defs>
  <g>
    <ellipse cx="58" cy="45" rx="24" ry="18" fill="url(#bodyQ)" stroke="#d8f3ff" stroke-width="3"/>
    <path d="M36 44C22 28 9 26 4 31c10 6 15 13 20 23-7 8-11 15-11 22 9-4 20-9 32-18" fill="#7fe3ff" stroke="#d8f3ff" stroke-width="3" stroke-linejoin="round"/>
    <path d="M79 42c14-16 24-18 32-13-8 7-12 13-16 20 7 5 11 10 12 18-9-2-17-6-28-14" fill="#46b0ff" stroke="#d8f3ff" stroke-width="3" stroke-linejoin="round"/>
    <path d="M86 49l20 6-18 8c2-5 2-10-2-14z" fill="#ff9d2d"/>
    <circle cx="67" cy="40" r="3.5" fill="#182437"/>
    <circle cx="55" cy="45" r="12" fill="none" stroke="#ffffff" stroke-width="3" opacity=".7"/>
    <text x="55" y="50" text-anchor="middle" font-family="Arial, sans-serif" font-size="14" font-weight="700" fill="#ffffff">?</text>
  </g>
</svg>
